# xmcd CD database file
#
# Track frame offsets:
#	150
#	51605
#	134137
#	208345
#	285215
#
# Disc length: 4156 seconds
#
# Revision: 1
# Processed by: cddbd v1.5.1PL0 Copyright (c) Steve Scherf et al.
# Submitted via: CDex 1.51
#
DISCID=54103a05
DTITLE=Fabien Maman and Friends - A Winter "Soulstice" Harmonizing Concert
DYEAR=2004
DGENRE=New Age
TTITLE0=Chakra Realignment and Cycle of Fifths
TTITLE1=Gunkali
TTITLE2=Hindol
TTITLE3=Dorian
TTITLE4=Triple Warmer Song and OM and Birds Salutation
EXTD=YEAR: 2004
EXTT0=
EXTT1=
EXTT2=
EXTT3=
EXTT4=
PLAYORDER=
